<svg xmlns="http://www.w3.org/2000/svg" viewBox="0 0 1200 220" width="1200" height="220" role="img" aria-label="Audio">
  <defs>
    <pattern id="g6" width="56" height="56" patternUnits="userSpaceOnUse">
      <path d="M 56 0 L 0 0 0 56" fill="none" stroke="#000000" stroke-opacity="0.07" stroke-width="1"/>
    </pattern>
    <radialGradient id="f6" cx="50%" cy="0%" r="80%">
      <stop offset="0%" stop-color="#F8F6F1" stop-opacity="0"/>
      <stop offset="70%" stop-color="#F8F6F1" stop-opacity="0.8"/>
      <stop offset="100%" stop-color="#F8F6F1" stop-opacity="1"/>
    </radialGradient>
  </defs>

  <rect width="1200" height="220" fill="#F8F6F1"/>
  <rect width="1200" height="220" fill="url(#g6)"/>
  <rect width="1200" height="220" fill="url(#f6)"/>

  <g transform="translate(80, 40)">
    <rect width="104" height="26" rx="13" fill="#E8000A" fill-opacity="0.07" stroke="#E8000A" stroke-opacity="0.28"/>
    <text x="52" y="17.5" text-anchor="middle" fill="#E8000A" font-family="'DM Sans','Inter',system-ui,sans-serif" font-size="11" font-weight="600" letter-spacing="2.2">06 · AUDIO</text>
  </g>

  <text x="80" y="142" fill="#0D0D0D" font-family="'Instrument Serif','Georgia',serif" font-size="72" letter-spacing="-2">Audio<tspan fill="#E8000A">.</tspan></text>
  <text x="82" y="172" fill="#0D0D0D" fill-opacity="0.5" font-family="'DM Sans','Inter',system-ui,sans-serif" font-size="15" font-weight="300">Dual mic, onboard speaker, one I²S port running full-duplex. Everything rings through PSRAM.</text>

  <g transform="translate(880, 110)" stroke="#0D0D0D" stroke-linecap="round" stroke-width="3">
    <line x1="0"   y1="0"   x2="0"   y2="0"/>
    <line x1="10"  y1="-14" x2="10"  y2="14"/>
    <line x1="24"  y1="-28" x2="24"  y2="28"/>
    <line x1="38"  y1="-18" x2="38"  y2="18"/>
    <line x1="52"  y1="-36" x2="52"  y2="36"/>
    <line x1="66"  y1="-20" x2="66"  y2="20" stroke="#E8000A"/>
    <line x1="80"  y1="-40" x2="80"  y2="40" stroke="#E8000A"/>
    <line x1="94"  y1="-22" x2="94"  y2="22" stroke="#E8000A"/>
    <line x1="108" y1="-30" x2="108" y2="30"/>
    <line x1="122" y1="-14" x2="122" y2="14"/>
    <line x1="136" y1="-24" x2="136" y2="24"/>
    <line x1="150" y1="-8"  x2="150" y2="8"/>
    <line x1="164" y1="-16" x2="164" y2="16"/>
    <line x1="178" y1="-6"  x2="178" y2="6"/>
    <line x1="192" y1="-12" x2="192" y2="12"/>
    <line x1="206" y1="-4"  x2="206" y2="4"/>
    <line x1="220" y1="-8"  x2="220" y2="8"/>
    <line x1="234" y1="-2"  x2="234" y2="2"/>
  </g>
</svg>
